<?xml version="1.0" encoding="utf-8"?>
<!-- Generator: Adobe Illustrator 27.0.1, SVG Export Plug-In . SVG Version: 6.00 Build 0)  -->
<svg version="1.1" id="Camada_1" xmlns="http://www.w3.org/2000/svg" xmlns:xlink="http://www.w3.org/1999/xlink" x="0px" y="0px"
	 viewBox="0 0 1029.4 1051.6" style="enable-background:new 0 0 1029.4 1051.6;" xml:space="preserve">
<style type="text/css">
	.st0{fill:none;stroke:#000000;stroke-miterlimit:10;}
	.st1{fill:#0172AF;}
	.st2{fill:#575756;}
	.st3{fill:url(#SVGID_1_);}
	.st4{fill:url(#SVGID_00000013169424791571726740000018001595792574276023_);}
	.st5{fill:url(#SVGID_00000054247797729365541780000010183973189568266129_);}
	.st6{fill:url(#SVGID_00000042699494773445614460000011328814729528043153_);}
	.st7{fill:url(#SVGID_00000071531299784345264920000006482780122488374197_);}
	.st8{fill:url(#SVGID_00000005250935485345620690000015538527210977610405_);}
	.st9{fill:url(#SVGID_00000073684687327696809590000004927613352918362779_);}
	.st10{fill:url(#SVGID_00000039849623582737910940000009362942158920290953_);}
	.st11{fill:url(#SVGID_00000152260036456594029950000000477893991769020800_);}
	.st12{fill:url(#SVGID_00000065781910922609478130000007257393991026986653_);}
	.st13{fill:url(#SVGID_00000096061500380425119660000003979815204783310009_);}
	.st14{fill:url(#SVGID_00000083782018355127484950000010993290900455056827_);}
	.st15{fill:url(#SVGID_00000105397271531787492090000012580299762356339609_);}
	.st16{fill:url(#SVGID_00000129206394845785366590000013787082229123762343_);}
	.st17{fill:url(#SVGID_00000137116252402795737480000008908755849701088186_);}
	.st18{fill:url(#SVGID_00000027571474017624369970000010371011020581868207_);}
	.st19{fill:url(#SVGID_00000003783586072691439780000009352087612517300922_);}
	.st20{fill:url(#SVGID_00000042725616768522792360000002949227895444588692_);}
	.st21{fill:url(#SVGID_00000106107464264838000870000018252208841512342412_);}
	.st22{fill:url(#SVGID_00000047025361551730795160000004939043955635786413_);}
	.st23{fill:#74FEBD;}
	.st24{fill:#F5F5F5;}
	.st25{fill:#FFFFFF;}
	.st26{fill:#121212;}
	.st27{fill:#333333;}
	.st28{fill:url(#SVGID_00000169550161990707358160000000368472603535447957_);}
	.st29{fill:url(#SVGID_00000023999917145100697340000016181029542437119391_);}
	.st30{fill:url(#SVGID_00000155861096775576849140000002610754506300131229_);}
	.st31{fill:url(#SVGID_00000072281774978595442880000017926555095656304796_);}
	.st32{fill:url(#SVGID_00000077282064672589585460000014733136549120621749_);}
	.st33{fill:url(#SVGID_00000126290550583372337900000012848778447887119795_);}
	.st34{fill:url(#SVGID_00000034073318522761320890000018436988429434667195_);}
	.st35{fill:url(#SVGID_00000181079477835842755680000007955681330674482111_);}
	.st36{fill:url(#SVGID_00000153680146780904805390000016150814713497787041_);}
	.st37{fill:url(#SVGID_00000100379431246307237210000015888477386512399014_);}
</style>
<g>
	<linearGradient id="SVGID_1_" gradientUnits="userSpaceOnUse" x1="756.1616" y1="829.6073" x2="563.2346" y2="829.6073">
		<stop  offset="0" style="stop-color:#0172AF"/>
		<stop  offset="1" style="stop-color:#74FEBD"/>
	</linearGradient>
	<path class="st3" d="M733.4,786.8l-0.1-0.3c-3.8-1.4-12.8,1.1-16.5-0.3L677,804.8c-1.4,3.8-9,9.1-10.4,12.9l0.1,0.3l-36.1,16.9
		l-0.1-0.3c-3.8-1.4-12.8,1.1-16.5-0.3l-24.1,11.3c-1.4,3.8-9,9.1-10.4,12.9l0.1,0.3l-14.4,6.7c-0.7,2-1.1,3.1-1.9,5.1l3.2,6.8
		c2,0.7,3.1,1.1,5.1,1.9l14.4-6.7l0.1,0.3c3.8,1.4,12.8-1.1,16.5,0.3l24.1-11.3c1.4-3.8,9-9.1,10.4-12.9l-0.1-0.3l36.1-16.9l0.1,0.3
		c3.8,1.4,12.8-1.1,16.5,0.3l39.8-18.6c1.4-3.8,9-9.1,10.4-12.9l-0.1-0.3l14.4-6.7c0.7-2,1.1-3.1,1.9-5.1l-3.2-6.8
		c-2-0.7-3.1-1.1-5.1-1.9L733.4,786.8z"/>
	
		<linearGradient id="SVGID_00000179644139663946977020000008851392255441617820_" gradientUnits="userSpaceOnUse" x1="457.5037" y1="214.9274" x2="286.5142" y2="214.9274">
		<stop  offset="0" style="stop-color:#0172AF"/>
		<stop  offset="1" style="stop-color:#74FEBD"/>
	</linearGradient>
	<path style="fill:url(#SVGID_00000179644139663946977020000008851392255441617820_);" d="M334.8,240.7l0.1,0.3
		c3.8,1.4,12.8-1.1,16.6,0.3l57.9-27c1.4-3.8,9-9.1,10.4-12.9l-0.1-0.3l35.8-16.7c0.8-2.2,1.2-3.4,2-5.6l-2.9-6.2
		c-2.2-0.8-3.4-1.2-5.6-2l-35.8,16.7l-0.1-0.3c-3.8-1.4-12.8,1.1-16.6-0.3l-57.9,27c-1.4,3.8-9,9.1-10.4,12.9l0.1,0.3l-39.8,18.6
		c-0.8,2.2-1.2,3.4-2,5.6l2.9,6.2c2.2,0.8,3.4,1.2,5.6,2L334.8,240.7z"/>
	
		<linearGradient id="SVGID_00000036213614460062819980000016656406544771021233_" gradientUnits="userSpaceOnUse" x1="701.7576" y1="351.5992" x2="169.8519" y2="351.5992">
		<stop  offset="0" style="stop-color:#0172AF"/>
		<stop  offset="1" style="stop-color:#74FEBD"/>
	</linearGradient>
	<path style="fill:url(#SVGID_00000036213614460062819980000016656406544771021233_);" d="M247.9,456.1c1.4-3.8,9-9.1,10.4-12.9
		l-0.1-0.3l57.7-26.9l0.1,0.3c3.8,1.4,12.8-1.1,16.6,0.3l218.1-101.8c1.4-3.8,9-9.1,10.4-12.9l-0.1-0.3l51.3-23.9l0.1,0.3
		c3.8,1.4,12.8-1.1,16.6,0.3l62.4-29.1c1.4-3.8,9-9.1,10.4-12.9l-6.7-14.4c-3.8-1.4-12.8,1.1-16.6-0.3l-62.4,29.1
		c-1.4,3.8-9,9.1-10.4,12.9l0.1,0.3l-51.3,23.9l-0.1-0.3c-3.8-1.4-12.8,1.1-16.6-0.3L319.7,389c-1.4,3.8-9,9.1-10.4,12.9l0.1,0.3
		l-57.7,26.9l-0.1-0.3c-3.8-1.4-12.8,1.1-16.6-0.3l-54.7,25.5c-1.4,3.8-9,9.1-10.4,12.9l6.7,14.4c3.8,1.4,12.8-1.1,16.6,0.3
		L247.9,456.1z"/>
	
		<linearGradient id="SVGID_00000177463377059648105340000012067140186075349158_" gradientUnits="userSpaceOnUse" x1="767.9298" y1="419.9121" x2="167.4335" y2="419.9121">
		<stop  offset="0" style="stop-color:#0172AF"/>
		<stop  offset="1" style="stop-color:#74FEBD"/>
	</linearGradient>
	<path style="fill:url(#SVGID_00000177463377059648105340000012067140186075349158_);" d="M238.3,543.7c1.4-3.8,9-9.1,10.4-12.9
		l-0.1-0.3L284,514l0.1,0.3c3.8,1.4,12.8-1.1,16.6,0.3l44.1-20.6c1.4-3.8,9-9.1,10.4-12.9l-0.1-0.3l62.8-29.3l0.1,0.3
		c3.8,1.4,12.8-1.1,16.6,0.3l76.5-35.7c1.4-3.8,9-9.1,10.4-12.9l-0.1-0.3l62.4-29.1l0.1,0.3c3.8,1.4,12.8-1.1,16.6,0.3l44.8-20.9
		c1.4-3.8,9-9.1,10.4-12.9l-0.1-0.3l32.7-15.3l0.1,0.3c3.8,1.4,12.8-1.1,16.6,0.3l52.5-24.5c1.4-3.8,9-9.1,10.4-12.9l-6.7-14.4
		c-3.8-1.4-12.8,1.1-16.6-0.3l-52.5,24.5c-1.4,3.8-9,9.1-10.4,12.9l0.1,0.3l-32.7,15.3l-0.1-0.3c-3.8-1.4-12.8,1.1-16.6-0.3
		l-44.8,20.9c-1.4,3.8-9,9.1-10.4,12.9l0.1,0.3l-62.4,29.1l-0.1-0.3c-3.8-1.4-12.8,1.1-16.6-0.3l-76.5,35.7
		c-1.4,3.8-9,9.1-10.4,12.9l0.1,0.3L348.7,467l-0.1-0.3c-3.8-1.4-12.8,1.1-16.6-0.3L287.9,487c-1.4,3.8-9,9.1-10.4,12.9l0.1,0.3
		l-35.4,16.5l-0.1-0.3c-3.8-1.4-12.8,1.1-16.6-0.3l-47.6,22.2c-1.4,3.8-9,9.1-10.4,12.9l6.7,14.4c3.8,1.4,12.8-1.1,16.6,0.3
		L238.3,543.7z"/>
	
		<linearGradient id="SVGID_00000047019499734305418910000004616811288466974129_" gradientUnits="userSpaceOnUse" x1="607.4451" y1="283.2588" x2="200.3438" y2="283.2588">
		<stop  offset="0" style="stop-color:#0172AF"/>
		<stop  offset="1" style="stop-color:#74FEBD"/>
	</linearGradient>
	<path style="fill:url(#SVGID_00000047019499734305418910000004616811288466974129_);" d="M316.5,340.8c1.4-3.8,9-9.1,10.4-12.9
		l-0.1-0.3l157.5-73.5l0.1,0.3c3.8,1.4,12.8-1.1,16.6,0.3l96.1-44.8c1.4-3.8,9-9.1,10.4-12.9l-6.7-14.4c-3.8-1.4-12.8,1.1-16.6-0.3
		l-96.1,44.8c-1.4,3.8-9,9.1-10.4,12.9l0.1,0.3l-157.5,73.5l-0.1-0.3c-3.8-1.4-12.8,1.1-16.6-0.3l-92.8,43.3
		c-1.4,3.8-9,9.1-10.4,12.9l6.7,14.4c3.8,1.4,12.8-1.1,16.6,0.3L316.5,340.8z"/>
	
		<linearGradient id="SVGID_00000039112749163279675870000018154175800478445221_" gradientUnits="userSpaceOnUse" x1="847.4389" y1="556.6086" x2="215.4979" y2="556.6086">
		<stop  offset="0" style="stop-color:#0172AF"/>
		<stop  offset="1" style="stop-color:#74FEBD"/>
	</linearGradient>
	<path style="fill:url(#SVGID_00000039112749163279675870000018154175800478445221_);" d="M787.1,420.5c-1.3,3.7-9,8.9-10.3,12.6
		l0.2,0.5L747,447.7l-0.2-0.5c-3.7-1.3-12.6,1.1-16.2-0.2l-29.7,13.9c-1.3,3.7-9,8.9-10.3,12.6l0.2,0.5L659,488.7l-0.2-0.5
		c-3.7-1.3-12.6,1.1-16.2-0.2L610,503.2c-1.3,3.7-9,8.9-10.3,12.6l0.2,0.5l-43.5,20.3l-0.2-0.5c-3.7-1.3-12.6,1.1-16.2-0.2
		l-32.8,15.3c-1.3,3.7-9,8.9-10.3,12.6l0.2,0.5L455,583.9l-0.2-0.5c-3.7-1.3-12.6,1.1-16.2-0.2l-34.8,16.2c-1.3,3.7-9,8.9-10.3,12.6
		l0.2,0.5l-27,12.6l-0.2-0.5c-3.7-1.3-12.6,1.1-16.2-0.2l-32.8,15.3c-1.3,3.7-9,8.9-10.3,12.6l0.2,0.5l-30,14l-0.2-0.5
		c-3.7-1.3-12.6,1.1-16.2-0.2l-35,16.3c-1.3,3.7-9,8.9-10.3,12.6l6.9,14.8c3.7,1.3,12.6-1.1,16.2,0.2l35-16.3
		c1.3-3.7,9-8.9,10.3-12.6l-0.2-0.5l30-14l0.2,0.5c3.7,1.3,12.6-1.1,16.2,0.2L363,652c1.3-3.7,9-8.9,10.3-12.6l-0.2-0.5l27-12.6
		l0.2,0.5c3.7,1.3,12.6-1.1,16.2,0.2l34.8-16.2c1.3-3.7,9-8.9,10.3-12.6l-0.2-0.5l42.2-19.7l0.2,0.5c3.7,1.3,12.6-1.1,16.2,0.2
		l32.8-15.3c1.3-3.7,9-8.9,10.3-12.6l-0.2-0.5l43.5-20.3l0.2,0.5c3.7,1.3,12.6-1.1,16.2,0.2l32.5-15.2c1.3-3.7,9-8.9,10.3-12.6
		l-0.2-0.5l31.7-14.8l0.2,0.5c3.7,1.3,12.6-1.1,16.2,0.2l29.7-13.9c1.3-3.7,9-8.9,10.3-12.6l-0.2-0.5l30.1-14.1l0.2,0.5
		c3.7,1.3,12.6-1.1,16.2,0.2l37.2-17.3c1.3-3.7,9-8.9,10.3-12.6l-6.9-14.8c-3.7-1.3-12.6,1.1-16.2-0.2L787.1,420.5z"/>
	
		<linearGradient id="SVGID_00000055696385384600010410000000564860704361743744_" gradientUnits="userSpaceOnUse" x1="815.436" y1="488.2603" x2="183.7141" y2="488.2603">
		<stop  offset="0" style="stop-color:#0172AF"/>
		<stop  offset="1" style="stop-color:#74FEBD"/>
	</linearGradient>
	<path style="fill:url(#SVGID_00000055696385384600010410000000564860704361743744_);" d="M792.2,334.9L747,356
		c-1.4,3.8-9,9.1-10.4,12.9l0.1,0.3L710,381.7l-0.1-0.3c-3.8-1.4-12.8,1.1-16.6-0.3l-35,16.3c-1.4,3.8-9,9.1-10.4,12.9l0.1,0.3
		l-31.4,14.7l-0.1-0.3c-3.8-1.4-12.8,1.1-16.6-0.3l-42.8,20c-1.4,3.8-9,9.1-10.4,12.9l0.1,0.3l-101.5,47.4l-0.1-0.3
		c-3.8-1.4-12.8,1.1-16.6-0.3l-41.1,19.2c-1.4,3.8-9,9.1-10.4,12.9l0.1,0.3l-34.1,15.9l-0.1-0.3c-3.8-1.4-12.8,1.1-16.6-0.3
		l-36,16.8c-1.4,3.8-9,9.1-10.4,12.9l0.1,0.3l-29.7,13.9l-0.1-0.3c-3.8-1.4-12.8,1.1-16.6-0.3L194.1,614c-1.4,3.8-9,9.1-10.4,12.9
		l6.7,14.4c3.8,1.4,12.8-1.1,16.6,0.3l39.6-18.5c1.4-3.8,9-9.1,10.4-12.9l-0.1-0.3l29.7-13.9l0.1,0.3c3.8,1.4,12.8-1.1,16.6,0.3
		l36-16.8c1.4-3.8,9-9.1,10.4-12.9l-0.1-0.3l34.1-15.9l0.1,0.3c3.8,1.4,12.8-1.1,16.6,0.3l41.1-19.2c1.4-3.8,9-9.1,10.4-12.9
		l-0.1-0.3l101.5-47.4l0.1,0.3c3.8,1.4,12.8-1.1,16.6,0.3l42.8-20c1.4-3.8,9-9.1,10.4-12.9L623,439l31.4-14.7l0.1,0.3
		c3.8,1.4,12.8-1.1,16.6,0.3l35-16.3c1.4-3.8,9-9.1,10.4-12.9l-0.1-0.3l26.7-12.4l0.1,0.3c3.8,1.4,12.8-1.1,16.6,0.3l45.2-21.1
		c1.4-3.8,9-9.1,10.4-12.9l-6.7-14.4C805,333.9,795.9,336.3,792.2,334.9z"/>
	
		<linearGradient id="SVGID_00000063627381755055483100000016815914468773741224_" gradientUnits="userSpaceOnUse" x1="852.5406" y1="696.0645" x2="329.2713" y2="696.0645">
		<stop  offset="0" style="stop-color:#0172AF"/>
		<stop  offset="1" style="stop-color:#74FEBD"/>
	</linearGradient>
	<path style="fill:url(#SVGID_00000063627381755055483100000016815914468773741224_);" d="M827.6,576.5l-0.1-0.3
		c-3.8-1.4-12.8,1.1-16.5-0.3l-63,29.4c-1.4,3.8-9,9.1-10.4,12.9l0.1,0.3l-34.8,16.2l-0.1-0.3c-3.8-1.4-12.8,1.1-16.5-0.3l-53.6,25
		c-1.4,3.8-9,9.1-10.4,12.9l0.1,0.3l-43.5,20.3l-0.1-0.3c-3.8-1.4-12.8,1.1-16.5-0.3l-44.8,20.9c-1.4,3.8-9,9.1-10.4,12.9l0.1,0.3
		l-23.6,11l-0.1-0.3c-3.8-1.4-12.8,1.1-16.5-0.3l-39.8,18.6c-1.4,3.8-9,9.1-10.4,12.9l0.1,0.3l-36.1,16.9l-0.1-0.3
		c-3.8-1.4-12.8,1.1-16.5-0.3l-24.1,11.3c-1.4,3.8-9,9.1-10.4,12.9L336,823c3.8,1.4,12.8-1.1,16.5,0.3l24.1-11.3
		c1.4-3.8,9-9.1,10.4-12.9l-0.1-0.3L423,782l0.1,0.3c3.8,1.4,12.8-1.1,16.5,0.3l39.8-18.6c1.4-3.8,9-9.1,10.4-12.9l-0.1-0.3l23.6-11
		l0.1,0.3c3.8,1.4,12.8-1.1,16.5,0.3l44.8-20.9c1.4-3.8,9-9.1,10.4-12.9l-0.1-0.3l43.5-20.3l0.1,0.3c3.8,1.4,12.8-1.1,16.5,0.3
		l53.6-25c1.4-3.8,9-9.1,10.4-12.9l-0.1-0.3l34.8-16.2l0.1,0.3c3.8,1.4,12.8-1.1,16.5,0.3l63-29.4c1.4-3.8,9-9.1,10.4-12.9l-0.1-0.3
		l16.7-7.8c0.7-2,1.1-3.1,1.9-5.1l-3.2-6.8c-2-0.7-3.1-1.1-5.1-1.9L827.6,576.5z"/>
	
		<linearGradient id="SVGID_00000059280623629164401660000003235481819716845711_" gradientUnits="userSpaceOnUse" x1="863.703" y1="624.9215" x2="262.9876" y2="624.9215">
		<stop  offset="0" style="stop-color:#0172AF"/>
		<stop  offset="1" style="stop-color:#74FEBD"/>
	</linearGradient>
	<path style="fill:url(#SVGID_00000059280623629164401660000003235481819716845711_);" d="M782.8,505.7c-1.3,3.7-9,8.9-10.3,12.6
		l0.2,0.5l-48.6,22.7l-0.2-0.5c-3.7-1.3-12.6,1.1-16.2-0.2l-50.3,23.5c-1.3,3.7-9,8.9-10.3,12.6l0.2,0.5l-36.5,17l-0.2-0.5
		c-3.7-1.3-12.6,1.1-16.2-0.2l-38.2,17.8c-1.3,3.7-9,8.9-10.3,12.6l0.2,0.5l-43.5,20.3l-0.2-0.5c-3.7-1.3-12.6,1.1-16.2-0.2
		l-36.8,17.2c-1.3,3.7-9,8.9-10.3,12.6l0.2,0.5l-23,10.7l-0.2-0.5c-3.7-1.3-12.6,1.1-16.2-0.2l-37.5,17.5c-1.3,3.7-9,8.9-10.3,12.6
		l0.2,0.5l-31.7,14.8l-0.2-0.5c-3.7-1.3-12.6,1.1-16.2-0.2l-30.8,14.4c-1.3,3.7-9,8.9-10.3,12.6l6.9,14.8c3.7,1.3,12.6-1.1,16.2,0.2
		l30.8-14.4c1.3-3.7,9-8.9,10.3-12.6l-0.2-0.5l31.7-14.8l0.2,0.5c3.7,1.3,12.6-1.1,16.2,0.2l37.5-17.5c1.3-3.7,9-8.9,10.3-12.6
		l-0.2-0.5l23-10.7l0.2,0.5c3.7,1.3,12.6-1.1,16.2,0.2l36.8-17.2c1.3-3.7,9-8.9,10.3-12.6l-0.2-0.5l43.5-20.3l0.2,0.5
		c3.7,1.3,12.6-1.1,16.2,0.2l38.2-17.8c1.3-3.7,9-8.9,10.3-12.6l-0.2-0.5l36.5-17l0.2,0.5c3.7,1.3,12.6-1.1,16.2,0.2l50.3-23.5
		c1.3-3.7,9-8.9,10.3-12.6l-0.2-0.5l48.6-22.7l0.2,0.5c3.7,1.3,12.6-1.1,16.2,0.2l57.7-26.9c1.3-3.7,9-8.9,10.3-12.6l-6.9-14.8
		c-3.7-1.3-12.6,1.1-16.2-0.2L782.8,505.7z"/>
	
		<linearGradient id="SVGID_00000113343333749294334830000013333124548164969366_" gradientUnits="userSpaceOnUse" x1="821.9983" y1="761.5906" x2="432.199" y2="761.5906">
		<stop  offset="0" style="stop-color:#0172AF"/>
		<stop  offset="1" style="stop-color:#74FEBD"/>
	</linearGradient>
	<path style="fill:url(#SVGID_00000113343333749294334830000013333124548164969366_);" d="M798.1,673.4l-0.1-0.3
		c-3.8-1.4-12.8,1.1-16.5-0.3l-16.2,7.5c-1.4,3.8-9,9.1-10.4,12.9l0.1,0.3L698.3,720l-0.1-0.3c-3.8-1.4-12.8,1.1-16.5-0.3
		l-70.1,32.7c-1.4,3.8-9,9.1-10.4,12.9l0.1,0.3l-33.4,15.6l-0.1-0.3c-3.8-1.4-12.8,1.1-16.5-0.3l-49.2,23c-1.4,3.8-9,9.1-10.4,12.9
		l0.1,0.3l-57.6,26.9c-0.7,2-1.1,3.1-1.9,5.1l3.2,6.8c2,0.7,3.1,1.1,5.1,1.9l57.6-26.9l0.1,0.3c3.8,1.4,12.8-1.1,16.5,0.3l49.2-23
		c1.4-3.8,9-9.1,10.4-12.9l-0.1-0.3l33.4-15.6l0.1,0.3c3.8,1.4,12.8-1.1,16.5,0.3l70.1-32.7c1.4-3.8,9-9.1,10.4-12.9l-0.1-0.3
		l56.7-26.4l0.1,0.3c3.8,1.4,12.8-1.1,16.5,0.3l16.2-7.5c1.4-3.8,9-9.1,10.4-12.9l-0.1-0.3l15.6-7.3c0.7-2,1.1-3.1,1.9-5.1l-3.2-6.8
		c-2-0.7-3.1-1.1-5.1-1.9L798.1,673.4z"/>
</g>
</svg>
