<?xml version="1.0" encoding="utf-8"?>
<!-- Generator: Adobe Illustrator 27.0.1, SVG Export Plug-In . SVG Version: 6.00 Build 0)  -->
<svg version="1.1" id="Camada_1" xmlns="http://www.w3.org/2000/svg" xmlns:xlink="http://www.w3.org/1999/xlink" x="0px" y="0px"
	 viewBox="0 0 1529.2 593.8" style="enable-background:new 0 0 1529.2 593.8;" xml:space="preserve">
<style type="text/css">
	.st0{fill:none;stroke:#000000;stroke-miterlimit:10;}
	.st1{fill:#0172AF;}
	.st2{fill:#575756;}
	.st3{fill:url(#SVGID_1_);}
	.st4{fill:url(#SVGID_00000036961778692494492550000009140226929568715916_);}
	.st5{fill:url(#SVGID_00000150063545035248253180000017320161469523743643_);}
	.st6{fill:url(#SVGID_00000130618658303835667810000007591062161842940054_);}
	.st7{fill:url(#SVGID_00000058577083391727251640000010555566638542616716_);}
	.st8{fill:url(#SVGID_00000045580911374583916360000011920663278071417785_);}
	.st9{fill:url(#SVGID_00000036950144665226619340000015399268072474464403_);}
	.st10{fill:url(#SVGID_00000095333162928697032230000007292335102446454448_);}
	.st11{fill:url(#SVGID_00000135670189107970523880000012339250183198842004_);}
	.st12{fill:url(#SVGID_00000064319111389980987040000011836648280548297892_);}
	.st13{fill:url(#SVGID_00000028325839351129017850000013816246868432336002_);}
	.st14{fill:url(#SVGID_00000093878189000158891300000002332177239984663182_);}
	.st15{fill:url(#SVGID_00000178177283866686924450000008118741687168078011_);}
	.st16{fill:url(#SVGID_00000067224720722638063900000016655508511052615042_);}
	.st17{fill:url(#SVGID_00000036235894224584277190000012076890099047070358_);}
	.st18{fill:url(#SVGID_00000111901865876317936950000003702597738463271579_);}
	.st19{fill:url(#SVGID_00000137105461644042870710000003298016901743405247_);}
	.st20{fill:url(#SVGID_00000097479502845087039590000014365854998299310227_);}
	.st21{fill:url(#SVGID_00000017505530090910561990000010980972157152594567_);}
	.st22{fill:url(#SVGID_00000094597763361295421750000016307056314049054396_);}
	.st23{fill:#74FEBD;}
	.st24{fill:#F5F5F5;}
	.st25{fill:#FFFFFF;}
	.st26{fill:#121212;}
	.st27{fill:#333333;}
	.st28{fill:url(#SVGID_00000155135542019241972550000015420198836787513267_);}
	.st29{fill:url(#SVGID_00000105420028837032465980000005806289645325472899_);}
	.st30{fill:url(#SVGID_00000109029182761346112250000007767762103981073318_);}
	.st31{fill:url(#SVGID_00000155130717139600606130000017183277075691923391_);}
	.st32{fill:url(#SVGID_00000041263230861916199670000016822742315020217772_);}
	.st33{fill:url(#SVGID_00000109750316601712224590000011700229472167729328_);}
	.st34{fill:url(#SVGID_00000072275104344985772450000000877125212091852718_);}
	.st35{fill:url(#SVGID_00000070839421399717745390000003771981364469008518_);}
	.st36{fill:url(#SVGID_00000135652813364466359520000000788775283321696688_);}
	.st37{fill:url(#SVGID_00000160897016093110789730000009306917006751799728_);}
</style>
<g>
	<g>
		<path class="st25" d="M669.1,239.8c-7.8-4.5-17-7.8-27.6-9.8c-7.6-1.4-14.2-3.7-19.8-6.9c-5.6-3.1-9.9-6.9-12.9-11.3
			c-3-4.4-4.5-9.2-4.5-14.4c0-5.1,1.3-9.5,3.8-13.3c2.5-3.8,6.2-6.7,10.9-8.7c4.7-2,10.3-3,16.7-3c6.1,0,11.7,1.3,16.6,3.8
			c4.9,2.5,9,6.2,12.2,10.9c2.9,4.3,4.9,9.3,5.9,15c0.2,0.9,1,1.6,1.9,1.6l15.8-0.2c1.1,0,2-1,1.9-2.2c-1.2-8.8-4-16.6-8.4-23.3
			c-4.7-7.2-11-12.8-18.7-16.7c-7.7-3.9-16.6-5.8-26.5-5.8c-10.7,0-20.1,1.7-28,5.1c-7.9,3.4-14.1,8.2-18.3,14.4
			c-4.3,6.2-6.4,13.5-6.4,21.9c0,8,2,15.3,6.1,22c4.1,6.7,9.9,12.3,17.4,16.8c7.5,4.5,16.4,7.6,26.5,9.4c8,1.4,14.9,3.7,20.8,6.8
			c5.9,3.1,10.5,6.8,13.7,11.1c3.2,4.3,4.8,9.1,4.8,14.2c-0.1,5.6-1.6,10.4-4.5,14.5c-2.9,4.1-7,7.2-12.4,9.5
			c-5.4,2.2-11.6,3.3-18.7,3.3c-8,0-15.1-1.6-21.1-4.8s-10.6-7.7-13.9-13.6c-3-5.4-4.6-11.7-4.9-18.9c0-1-0.9-1.9-1.9-1.9h-15.7
			c-1.1,0-2,0.9-1.9,2c0.3,10.6,2.7,19.8,7.2,27.7c4.7,8.4,11.5,14.9,20.3,19.4c8.8,4.5,19.1,6.8,30.8,6.8c11.7,0,21.9-1.8,30.5-5.3
			c8.6-3.6,15.3-8.6,19.9-15.2c4.6-6.6,7-14.3,7-23.2c0-7.6-2.1-14.7-6.3-21.2C683,249.9,676.9,244.4,669.1,239.8z"/>
		<path class="st25" d="M814,162.6c-9.1-4.3-20-6.4-33-6.4c-12.5,0-23.1,2.1-31.9,6.4c-8.8,4.3-15.4,10.5-20.1,18.8
			c-4.6,8.2-6.9,18.2-7,30v106.2c0,1.1,0.9,1.9,1.9,1.9h17.2c1.1,0,1.9-0.9,1.9-1.9l0.3-55.7l0.1-13.2l0.2-36.2
			c0-6.3,0.8-11.9,2.4-16.8c1.6-4.8,4.1-9,7.3-12.4c6.5-6.8,15.7-10.2,27.8-10.2c12.7,0,22.4,3.3,29.2,10
			c6.8,6.6,10.2,16.1,10.2,28.4c0,12-3.5,21.2-10.5,27.6c-6.8,6.3-16.5,9.5-28.9,9.6v-0.1h-18.7c-1.1,0-1.9,0.9-1.9,1.9v13.2
			c0,1.1,0.9,1.9,1.9,1.9H781c12.9,0,23.9-2.1,33-6.3c9.1-4.2,15.9-10.3,20.6-18.4c4.7-8.1,7-18,7-29.5c0-11.8-2.3-21.8-7-30.1
			C829.9,173.1,823,166.8,814,162.6z"/>
		<path class="st25" d="M991.2,157.8h-17.3c-1.1,0-1.9,0.9-1.9,1.9v72c0,1.1-0.9,1.9-1.9,1.9h-72.8c-1.1,0-1.9-0.9-1.9-1.9v-72
			c0-1.1-0.9-1.9-1.9-1.9H876c-1.1,0-1.9,0.9-1.9,1.9v157.5c0,1.1,0.9,1.9,1.9,1.9h17.3c1.1,0,1.9-0.9,1.9-1.9v-64.6
			c0-1.1,0.9-1.9,1.9-1.9H970c1.1,0,1.9,0.9,1.9,1.9v64.7c0,1.1,0.9,1.9,1.9,1.9h17.3c1.1,0,1.9-0.9,1.9-1.9V159.7
			C993.1,158.7,992.2,157.8,991.2,157.8z"/>
		<path class="st25" d="M1139.4,303.6c-6,0.5-13,0.8-21.2,0.8c-23.7,0-41.5-5.6-53.4-16.9c-9.9-9.3-15.7-22.5-17.4-39.4
			c-0.1-1.1,0.8-2.1,1.9-2.1h76.3c1.1,0,1.9-0.9,1.9-1.9v-13.2c0-1.1-0.9-1.9-1.9-1.9h-76.3c-1.1,0-2-1-1.9-2.1
			c1.7-16.2,7.5-28.9,17.4-37.8c11.9-10.7,29.5-16.1,52.8-16.2c6.8,0,13.5,0.3,20.3,0.8c1.1,0.1,2.1-0.8,2.1-1.9v-13.2
			c0-1-0.8-1.8-1.8-1.9c-6.7-0.5-13.4-0.8-20-0.8v0c-0.2,0-0.4,0-0.6,0c-0.3,0-0.6,0-0.8,0v0c-30.3,0.2-53,7-68.1,20.3
			c-15.4,13.5-23,34-23,61.3c0,28.1,7.7,49.2,23.1,63.1c15.4,14,38.6,21,69.6,21c8.3,0,15.5-0.3,21.5-0.8c1-0.1,1.7-0.9,1.7-1.9
			v-13.2C1141.5,304.4,1140.5,303.5,1139.4,303.6z"/>
		<path class="st25" d="M1257.4,242.4c6.4-3.5,11.6-8,15.4-13.6c4.9-7.2,7.3-15.7,7.3-25.7c0-9.9-2.2-18.5-6.7-25.6
			c-4.5-7.1-10.9-12.6-19.3-16.3c-8.4-3.8-18.4-5.7-30.1-5.7c-11.7,0-21.7,1.9-30.1,5.7c-8.4,3.8-14.8,9.4-19.3,16.6
			c-4.5,7.3-6.7,15.9-6.7,26V317c0,1.1,0.9,1.9,1.9,1.9h17.2c1.1,0,1.9-0.9,1.9-1.9l0.1-111.7c0-6.8,1.4-12.7,4.2-17.6
			c2.8-4.9,6.8-8.7,12.1-11.4c5.2-2.6,11.4-4,18.6-4c7.2,0,13.4,1.3,18.6,3.8c5.2,2.5,9.2,6.1,12,10.9c2.8,4.7,4.2,10.4,4.2,16.8
			c0,6.7-1.6,12.4-4.9,17.3c-3.3,4.9-8,8.6-14.1,11.3c-6.1,2.6-13.5,4-22,4.1v0.1h-11c-1.1,0-1.9,0.9-1.9,1.9v11.9
			c0,1.1,0.9,1.9,1.9,1.9h10.9c8.2-0.1,15.3,1,21.2,3.1c5.9,2.2,10.4,5.3,13.5,9.5c3.1,4.2,4.7,9.1,4.7,15v37.3
			c0,1.1,0.9,1.9,1.9,1.9h17.3c1.1,0,1.9-0.9,1.9-1.9v-38.7c0-8.4-2.4-15.6-7.2-21.7c-3.5-4.4-8.1-8.1-13.9-11
			C1256.1,245.1,1256,243.2,1257.4,242.4z"/>
		<path class="st25" d="M1421.8,303.6c-6,0.5-13,0.8-21.2,0.8c-23.7,0-41.5-5.6-53.4-16.9c-9.9-9.3-15.7-22.5-17.4-39.4
			c-0.1-1.1,0.8-2.1,1.9-2.1h76.3c1.1,0,1.9-0.9,1.9-1.9v-13.2c0-1.1-0.9-1.9-1.9-1.9h-76.3c-1.1,0-2-1-1.9-2.1
			c1.7-16.2,7.5-28.9,17.4-37.8c11.9-10.7,29.5-16.1,52.8-16.2c6.8,0,13.5,0.3,20.3,0.8c1.1,0.1,2.1-0.8,2.1-1.9v-13.2
			c0-1-0.8-1.8-1.8-1.9c-6.7-0.5-13.4-0.8-20-0.8v0c-0.2,0-0.4,0-0.6,0c-0.3,0-0.6,0-0.8,0v0c-30.3,0.2-53,7-68.1,20.3
			c-15.4,13.5-23,34-23,61.3c0,28.1,7.7,49.2,23.1,63.1c15.4,14,38.6,21,69.6,21c8.3,0,15.5-0.3,21.5-0.8c1-0.1,1.7-0.9,1.7-1.9
			v-13.2C1423.9,304.4,1422.9,303.5,1421.8,303.6z"/>
	</g>
	<g>
		<path class="st24" d="M623.3,425.9c-3.6,2.5-7.8,3.7-12.7,3.7c-4.4,0-8.4-1.1-11.7-3.2c-3.4-2.1-6-5.1-7.9-9
			c-1.9-3.9-2.8-8.4-2.8-13.4c0-5.2,0.9-9.7,2.8-13.6c1.9-3.8,4.5-6.8,7.9-9c3.4-2.1,7.3-3.2,11.8-3.2c4.8,0,9,1.3,12.5,3.8
			c3.5,2.5,5.9,6,7.2,10.4h6.6c-0.8-4.1-2.4-7.7-4.9-10.6c-2.5-3-5.5-5.3-9.1-7c-3.6-1.7-7.6-2.5-12.1-2.5c-5.7,0-10.8,1.3-15.1,4
			c-4.4,2.7-7.8,6.4-10.3,11.1c-2.5,4.8-3.7,10.3-3.7,16.6c0,6.3,1.2,11.8,3.6,16.5c2.4,4.7,5.8,8.4,10.1,11.1c4.3,2.7,9.3,4,15,4
			c4.4,0,8.4-0.8,12.1-2.4c3.7-1.6,6.8-3.9,9.4-6.8c2.5-2.9,4.3-6.3,5.2-10.1h-6.6C629.4,420.2,626.9,423.4,623.3,425.9z"/>
		<path class="st24" d="M671.6,399.7c-0.4,0.7-0.7,1.2-0.9,1.5c-0.2,0.3-0.3,0.7-0.4,0.9c-0.1,0.3-0.3,0.7-0.6,1.2
			c-0.3-0.7-0.6-1.3-0.9-1.9c-0.3-0.6-0.6-1.2-0.9-1.8l-15.1-26.4h-6.9l20.8,35.7v25.6h6.2v-25.6l20.5-35.7h-6.8L671.6,399.7z"/>
		<path class="st24" d="M740.6,403.7c3-1.1,5.3-2.8,6.9-5c1.9-2.5,2.8-5.7,2.8-9.6c0-4.9-1.7-8.8-5.1-11.6c-3.4-2.8-8.1-4.2-14-4.2
			h-16.3H711h-2.2v61.2h2.2h3.9h17.5c3.9,0,7.2-0.7,10.1-2c2.9-1.3,5-3.2,6.6-5.6c1.5-2.4,2.3-5.3,2.3-8.5c0-4-1-7.3-3.1-9.9
			C746.6,406.3,744,404.7,740.6,403.7z M731.1,378.7c4.1,0,7.3,1,9.5,2.9c2.2,1.9,3.3,4.6,3.3,8c0,3.6-1,6.5-3.1,8.5
			c-2.1,2-5.1,3-8.9,3h-16.9v-22.4H731.1z M741.8,426c-2.3,2-5.4,3-9.4,3h-17.5v-22.4h17.5c4,0,7.1,1,9.4,3c2.3,2,3.4,4.7,3.4,8.2
			C745.2,421.2,744.1,424,741.8,426z"/>
		<polygon class="st24" points="775.9,406.5 803.6,406.5 803.6,401 775.9,401 775.9,378.9 806.4,378.9 806.4,373.3 769.8,373.3 
			769.8,434.5 806.5,434.5 806.5,428.9 775.9,428.9 		"/>
		<path class="st24" d="M865.6,402c2.2-3,3.3-6.6,3.3-11c0-5.5-1.8-9.8-5.3-13c-3.6-3.2-8.4-4.7-14.6-4.7h-22.8v61.2h6.2v-25.4h17.9
			l12.5,25.4h6.8l-13.1-26.4C860.4,407,863.4,405,865.6,402z M849.1,403.6h-16.9v-24.7H849c4.2,0,7.5,1.1,9.9,3.2
			c2.5,2.1,3.7,5.2,3.7,9.2c0,3.8-1.2,6.8-3.6,9.1C856.7,402.4,853.4,403.6,849.1,403.6z"/>
		<path class="st24" d="M941.5,402.1l-10.5-2.6c-3.2-0.8-5.6-2.1-7.2-3.8c-1.6-1.7-2.4-3.9-2.4-6.6c0-3.5,1.3-6.2,3.9-8.3
			c2.6-2.1,6.1-3.1,10.4-3.1c3.8,0,6.9,1,9.2,2.9c2.3,1.9,3.6,4.6,3.9,8h6.2c-0.3-3.4-1.3-6.4-2.9-8.8c-1.7-2.5-3.9-4.3-6.6-5.6
			c-2.8-1.3-6-2-9.7-2c-4.1,0-7.7,0.7-10.8,2.1c-3.1,1.4-5.5,3.4-7.2,5.9c-1.7,2.5-2.6,5.5-2.6,8.9c0,4.2,1.2,7.7,3.7,10.4
			c2.5,2.7,6.1,4.6,10.9,5.8l10.4,2.6c3.3,0.8,5.7,2.1,7.3,3.8c1.6,1.7,2.4,4,2.4,6.8c0,3.5-1.3,6.2-4,8.3
			c-2.7,2.1-6.2,3.1-10.7,3.1c-4.2,0-7.6-1-10.2-2.9c-2.6-1.9-4-4.5-4.2-7.7h-6.3c0.3,3.3,1.3,6.2,3,8.6c1.7,2.5,4.1,4.3,7.2,5.6
			c3.1,1.3,6.5,2,10.5,2c4.2,0,7.9-0.7,11-2.1c3.1-1.4,5.6-3.4,7.3-6.1c1.7-2.6,2.6-5.7,2.6-9.2c0-4.2-1.2-7.6-3.7-10.3
			C949.9,405.2,946.3,403.2,941.5,402.1z"/>
		<path class="st24" d="M1014.9,376.2c-4.4-2.7-9.4-4.1-15.2-4.1c-5.7,0-10.7,1.4-15.1,4.1c-4.4,2.7-7.8,6.4-10.3,11.2
			c-2.5,4.8-3.7,10.3-3.7,16.5c0,6.2,1.2,11.7,3.7,16.4c2.5,4.7,5.9,8.5,10.3,11.2c4.4,2.7,9.5,4.1,15.2,4.1
			c5.7,0,10.7-1.4,15.1-4.1c4.4-2.7,7.8-6.4,10.3-11.2c2.5-4.7,3.7-10.2,3.7-16.4c0-6.2-1.2-11.7-3.7-16.5
			C1022.7,382.7,1019.2,378.9,1014.9,376.2z M1019.6,417.3c-1.9,3.9-4.6,6.9-8,9.1c-3.4,2.2-7.4,3.3-11.9,3.3
			c-4.5,0-8.5-1.1-11.9-3.3c-3.4-2.2-6.1-5.2-8-9.1c-1.9-3.9-2.9-8.4-2.9-13.4c0-5.1,1-9.6,2.9-13.5c1.9-3.8,4.6-6.9,8-9
			c3.4-2.2,7.4-3.3,11.9-3.3c4.6,0,8.5,1.1,11.9,3.3c3.4,2.2,6.1,5.2,8,9c1.9,3.8,2.9,8.3,2.9,13.5
			C1022.5,409,1021.6,413.5,1019.6,417.3z"/>
		<polygon class="st24" points="1053.4,373.3 1047.3,373.3 1047.3,434.5 1048.3,434.5 1053.4,434.5 1081.6,434.5 1081.6,428.9 
			1053.4,428.9 		"/>
		<path class="st24" d="M1134.1,413c0,5.3-1.4,9.4-4.3,12.3c-2.9,2.9-6.9,4.3-12.1,4.3c-5.4,0-9.5-1.4-12.3-4.3
			c-2.9-2.9-4.3-7-4.3-12.3v-39.7h-6.2v39.9c0,4.6,0.9,8.6,2.7,12c1.8,3.4,4.4,5.9,7.8,7.7c3.4,1.8,7.5,2.7,12.2,2.7
			c4.7,0,8.7-0.9,12.1-2.7c3.4-1.8,5.9-4.4,7.7-7.7c1.8-3.3,2.7-7.3,2.7-11.9v-39.9h-6.2V413z"/>
		<polygon class="st24" points="1155.5,378.9 1174.3,378.9 1174.3,434.5 1180.4,434.5 1180.4,378.9 1199.3,378.9 1199.3,373.3 
			1155.5,373.3 		"/>
		<rect x="1215" y="373.3" class="st24" width="6.2" height="61.2"/>
		<path class="st24" d="M1283.8,376.2c-4.4-2.7-9.4-4.1-15.2-4.1c-5.7,0-10.7,1.4-15.1,4.1c-4.4,2.7-7.8,6.4-10.3,11.2
			c-2.5,4.8-3.7,10.3-3.7,16.5c0,6.2,1.2,11.7,3.7,16.4c2.5,4.7,5.9,8.5,10.3,11.2c4.4,2.7,9.5,4.1,15.2,4.1s10.7-1.4,15.1-4.1
			c4.4-2.7,7.8-6.4,10.3-11.2c2.5-4.7,3.7-10.2,3.7-16.4c0-6.2-1.2-11.7-3.7-16.5C1291.6,382.7,1288.2,378.9,1283.8,376.2z
			 M1288.6,417.3c-1.9,3.9-4.6,6.9-8,9.1c-3.4,2.2-7.4,3.3-11.9,3.3c-4.5,0-8.5-1.1-11.9-3.3c-3.4-2.2-6.1-5.2-8-9.1
			c-1.9-3.9-2.9-8.4-2.9-13.4c0-5.1,1-9.6,2.9-13.5c1.9-3.8,4.6-6.9,8-9c3.4-2.2,7.4-3.3,11.9-3.3c4.6,0,8.5,1.1,11.9,3.3
			c3.4,2.2,6.1,5.2,8,9c1.9,3.8,2.9,8.3,2.9,13.5C1291.5,409,1290.5,413.5,1288.6,417.3z"/>
		<polygon class="st24" points="1356.1,424.3 1322.4,373.3 1316.2,373.3 1316.2,434.5 1322.4,434.5 1322.4,383.5 1356.1,434.5 
			1362.2,434.5 1362.2,373.3 1356.1,373.3 		"/>
		<path class="st24" d="M1417.1,407.9c-2.5-2.7-6.1-4.6-10.9-5.8l-10.5-2.6c-3.2-0.8-5.6-2.1-7.2-3.8c-1.6-1.7-2.4-3.9-2.4-6.6
			c0-3.5,1.3-6.2,3.9-8.3c2.6-2.1,6.1-3.1,10.4-3.1c3.8,0,6.9,1,9.2,2.9c2.3,1.9,3.6,4.6,3.9,8h6.2c-0.3-3.4-1.3-6.4-2.9-8.8
			c-1.7-2.5-3.9-4.3-6.6-5.6c-2.8-1.3-6-2-9.7-2c-4.1,0-7.7,0.7-10.8,2.1c-3.1,1.4-5.5,3.4-7.2,5.9c-1.7,2.5-2.6,5.5-2.6,8.9
			c0,4.2,1.2,7.7,3.7,10.4c2.5,2.7,6.1,4.6,10.9,5.8l10.4,2.6c3.3,0.8,5.7,2.1,7.3,3.8c1.6,1.7,2.4,4,2.4,6.8c0,3.5-1.3,6.2-4,8.3
			c-2.7,2.1-6.2,3.1-10.7,3.1c-4.2,0-7.6-1-10.2-2.9c-2.6-1.9-4-4.5-4.2-7.7h-6.3c0.3,3.3,1.3,6.2,3,8.6c1.7,2.5,4.1,4.3,7.2,5.6
			c3.1,1.3,6.5,2,10.5,2c4.2,0,7.9-0.7,11-2.1c3.1-1.4,5.6-3.4,7.3-6.1c1.7-2.6,2.6-5.7,2.6-9.2
			C1420.8,414,1419.6,410.6,1417.1,407.9z"/>
	</g>
	<g>
		<path class="st24" d="M409.6,436.2l-0.1-0.2c-2-0.7-6.9,0.6-8.9-0.2l-21.4,10c-0.7,2-4.9,4.9-5.6,6.9l0.1,0.2l-19.4,9.1l-0.1-0.2
			c-2-0.7-6.9,0.6-8.9-0.2l-13,6.1c-0.7,2-4.9,4.9-5.6,6.9l0.1,0.2l-7.8,3.6c-0.4,1.1-0.6,1.7-1,2.7l1.7,3.7c1.1,0.4,1.7,0.6,2.7,1
			l7.8-3.6l0.1,0.2c2,0.7,6.9-0.6,8.9,0.2l13-6.1c0.7-2,4.9-4.9,5.6-6.9l-0.1-0.2l19.4-9.1l0.1,0.2c2,0.7,6.9-0.6,8.9,0.2l21.4-10
			c0.7-2,4.9-4.9,5.6-6.9l-0.1-0.2l7.8-3.6c0.4-1.1,0.6-1.7,1-2.7l-1.7-3.7c-1.1-0.4-1.7-0.6-2.7-1L409.6,436.2z"/>
		<path class="st24" d="M195.3,142.7l0.1,0.2c2,0.7,6.9-0.6,8.9,0.2l31.1-14.5c0.7-2,4.9-4.9,5.6-6.9l-0.1-0.2l19.2-9
			c0.4-1.2,0.7-1.8,1.1-3l-1.5-3.3c-1.2-0.4-1.8-0.7-3-1.1l-19.2,9l-0.1-0.2c-2-0.7-6.9,0.6-8.9-0.2l-31.1,14.5
			c-0.7,2-4.9,4.9-5.6,6.9l0.1,0.2l-21.4,10c-0.4,1.2-0.7,1.8-1.1,3l1.5,3.3c1.2,0.4,1.8,0.7,3,1.1L195.3,142.7z"/>
		<path class="st24" d="M148.6,258.4c0.7-2,4.9-4.9,5.6-6.9l-0.1-0.2l31-14.5l0.1,0.2c2,0.7,6.9-0.6,8.9,0.2l117.2-54.7
			c0.7-2,4.9-4.9,5.6-6.9l-0.1-0.2l27.6-12.9l0.1,0.2c2,0.7,6.9-0.6,8.9,0.2l33.5-15.6c0.7-2,4.9-4.9,5.6-6.9l-3.6-7.7
			c-2-0.7-6.9,0.6-8.9-0.2L346.5,148c-0.7,2-4.9,4.9-5.6,6.9l0.1,0.2L313.4,168l-0.1-0.2c-2-0.7-6.9,0.6-8.9-0.2l-117.2,54.7
			c-0.7,2-4.9,4.9-5.6,6.9l0.1,0.2l-31,14.5l-0.1-0.2c-2-0.7-6.9,0.6-8.9-0.2l-29.4,13.7c-0.7,2-4.9,4.9-5.6,6.9l3.6,7.7
			c2,0.7,6.9-0.6,8.9,0.2L148.6,258.4z"/>
		<path class="st24" d="M143.4,305.6c0.7-2,4.9-4.9,5.6-6.9l-0.1-0.2l19.1-8.9l0.1,0.2c2,0.7,6.9-0.6,8.9,0.2l23.7-11.1
			c0.7-2,4.9-4.9,5.6-6.9l-0.1-0.2l33.7-15.7l0.1,0.2c2,0.7,6.9-0.6,8.9,0.2l41.1-19.2c0.7-2,4.9-4.9,5.6-6.9l-0.1-0.2l33.6-15.7
			l0.1,0.2c2,0.7,6.9-0.6,8.9,0.2l24.1-11.2c0.7-2,4.9-4.9,5.6-6.9l-0.1-0.2l17.6-8.2l0.1,0.2c2,0.7,6.9-0.6,8.9,0.2l28.2-13.2
			c0.7-2,4.9-4.9,5.6-6.9l-3.6-7.7c-2-0.7-6.9,0.6-8.9-0.2l-28.2,13.2c-0.7,2-4.9,4.9-5.6,6.9l0.1,0.2l-17.6,8.2l-0.1-0.2
			c-2-0.7-6.9,0.6-8.9-0.2l-24.1,11.2c-0.7,2-4.9,4.9-5.6,6.9l0.1,0.2l-33.6,15.7l-0.1-0.2c-2-0.7-6.9,0.6-8.9-0.2L242,241.5
			c-0.7,2-4.9,4.9-5.6,6.9l0.1,0.2l-33.7,15.7l-0.1-0.2c-2-0.7-6.9,0.6-8.9-0.2L170,275.1c-0.7,2-4.9,4.9-5.6,6.9l0.1,0.2l-19.1,8.9
			l-0.1-0.2c-2-0.7-6.9,0.6-8.9-0.2l-25.6,11.9c-0.7,2-4.9,4.9-5.6,6.9l3.6,7.7c2,0.7,6.9-0.6,8.9,0.2L143.4,305.6z"/>
		<path class="st24" d="M185.4,196.5c0.7-2,4.9-4.9,5.6-6.9l-0.1-0.2l84.7-39.5l0.1,0.2c2,0.7,6.9-0.6,8.9,0.2l51.6-24.1
			c0.7-2,4.9-4.9,5.6-6.9l-3.6-7.7c-2-0.7-6.9,0.6-8.9-0.2l-51.6,24.1c-0.7,2-4.9,4.9-5.6,6.9l0.1,0.2L187.5,182l-0.1-0.2
			c-2-0.7-6.9,0.6-8.9-0.2L128.6,205c-0.7,2-4.9,4.9-5.6,6.9l3.6,7.7c2,0.7,6.9-0.6,8.9,0.2L185.4,196.5z"/>
		<path class="st24" d="M438.4,239.3c-0.7,2-4.8,4.8-5.5,6.8l0.1,0.3l-16.2,7.6l-0.1-0.3c-2-0.7-6.8,0.6-8.7-0.1l-16,7.5
			c-0.7,2-4.8,4.8-5.5,6.8l0.1,0.3l-17,8l-0.1-0.3c-2-0.7-6.8,0.6-8.7-0.1l-17.5,8.1c-0.7,2-4.8,4.8-5.5,6.8l0.1,0.3l-23.4,10.9
			l-0.1-0.3c-2-0.7-6.8,0.6-8.7-0.1l-17.6,8.2c-0.7,2-4.8,4.8-5.5,6.8l0.1,0.3l-22.7,10.6l-0.1-0.3c-2-0.7-6.8,0.6-8.7-0.1
			l-18.7,8.7c-0.7,2-4.8,4.8-5.5,6.8l0.1,0.3l-14.5,6.8l-0.1-0.3c-2-0.7-6.8,0.6-8.7-0.1l-17.6,8.2c-0.7,2-4.8,4.8-5.5,6.8l0.1,0.3
			l-16.2,7.5l-0.1-0.3c-2-0.7-6.8,0.6-8.7-0.1l-18.8,8.8c-0.7,2-4.8,4.8-5.5,6.8l3.7,8c2,0.7,6.8-0.6,8.7,0.1l18.8-8.8
			c0.7-2,4.8-4.8,5.5-6.8l-0.1-0.3l16.2-7.5l0.1,0.3c2,0.7,6.8-0.6,8.7,0.1l17.6-8.2c0.7-2,4.8-4.8,5.5-6.8l-0.1-0.3l14.5-6.8
			l0.1,0.3c2,0.7,6.8-0.6,8.7,0.1l18.7-8.7c0.7-2,4.8-4.8,5.5-6.8l-0.1-0.3L286,324l0.1,0.3c2,0.7,6.8-0.6,8.7,0.1l17.6-8.2
			c0.7-2,4.8-4.8,5.5-6.8l-0.1-0.3l23.4-10.9l0.1,0.3c2,0.7,6.8-0.6,8.7,0.1l17.5-8.1c0.7-2,4.8-4.8,5.5-6.8l-0.1-0.3l17-8l0.1,0.3
			c2,0.7,6.8-0.6,8.7,0.1l16-7.5c0.7-2,4.8-4.8,5.5-6.8l-0.1-0.3l16.2-7.6l0.1,0.3c2,0.7,6.8-0.6,8.7,0.1l20-9.3
			c0.7-2,4.8-4.8,5.5-6.8l-3.7-8c-2-0.7-6.8,0.6-8.7-0.1L438.4,239.3z"/>
		<path class="st24" d="M441.1,193.3l-24.3,11.3c-0.7,2-4.9,4.9-5.6,6.9l0.1,0.2l-14.3,6.7l-0.1-0.2c-2-0.7-6.9,0.6-8.9-0.2
			l-18.8,8.8c-0.7,2-4.9,4.9-5.6,6.9l0.1,0.2l-16.9,7.9l-0.1-0.2c-2-0.7-6.9,0.6-8.9-0.2l-23,10.7c-0.7,2-4.9,4.9-5.6,6.9l0.1,0.2
			l-54.6,25.5l-0.1-0.2c-2-0.7-6.9,0.6-8.9-0.2l-22.1,10.3c-0.7,2-4.9,4.9-5.6,6.9l0.1,0.2l-18.3,8.6l-0.1-0.2
			c-2-0.7-6.9,0.6-8.9-0.2l-19.4,9c-0.7,2-4.9,4.9-5.6,6.9l0.1,0.2l-16,7.5l-0.1-0.2c-2-0.7-6.9,0.6-8.9-0.2l-21.3,9.9
			c-0.7,2-4.9,4.9-5.6,6.9l3.6,7.7c2,0.7,6.9-0.6,8.9,0.2l21.3-9.9c0.7-2,4.9-4.9,5.6-6.9l-0.1-0.2l16-7.5l0.1,0.2
			c2,0.7,6.9-0.6,8.9,0.2l19.4-9c0.7-2,4.9-4.9,5.6-6.9l-0.1-0.2l18.3-8.6l0.1,0.2c2,0.7,6.9-0.6,8.9,0.2l22.1-10.3
			c0.7-2,4.9-4.9,5.6-6.9l-0.1-0.2l54.6-25.5l0.1,0.2c2,0.7,6.9-0.6,8.9,0.2l23-10.7c0.7-2,4.9-4.9,5.6-6.9l-0.1-0.2l16.9-7.9
			l0.1,0.2c2,0.7,6.9-0.6,8.9,0.2l18.8-8.8c0.7-2,4.9-4.9,5.6-6.9l-0.1-0.2l14.3-6.7l0.1,0.2c2,0.7,6.9-0.6,8.9,0.2l24.3-11.3
			c0.7-2,4.9-4.9,5.6-6.9l-3.6-7.7C448,192.7,443.2,194.1,441.1,193.3z"/>
		<path class="st24" d="M460.2,323.2l-0.1-0.2c-2-0.7-6.9,0.6-8.9-0.2l-33.9,15.8c-0.7,2-4.9,4.9-5.6,6.9l0.1,0.2l-18.7,8.7
			l-0.1-0.2c-2-0.7-6.9,0.6-8.9-0.2l-28.8,13.4c-0.7,2-4.9,4.9-5.6,6.9l0.1,0.2l-23.4,10.9l-0.1-0.2c-2-0.7-6.9,0.6-8.9-0.2
			l-24.1,11.2c-0.7,2-4.9,4.9-5.6,6.9l0.1,0.2l-12.7,5.9l-0.1-0.2c-2-0.7-6.9,0.6-8.9-0.2l-21.4,10c-0.7,2-4.9,4.9-5.6,6.9l0.1,0.2
			l-19.4,9.1l-0.1-0.2c-2-0.7-6.9,0.6-8.9-0.2l-13,6.1c-0.7,2-4.9,4.9-5.6,6.9l3.6,7.8c2,0.7,6.9-0.6,8.9,0.2l13-6.1
			c0.7-2,4.9-4.9,5.6-6.9l-0.1-0.2l19.4-9.1l0.1,0.2c2,0.7,6.9-0.6,8.9,0.2l21.4-10c0.7-2,4.9-4.9,5.6-6.9l-0.1-0.2l12.7-5.9
			l0.1,0.2c2,0.7,6.9-0.6,8.9,0.2l24.1-11.2c0.7-2,4.9-4.9,5.6-6.9l-0.1-0.2l23.4-10.9l0.1,0.2c2,0.7,6.9-0.6,8.9,0.2l28.8-13.4
			c0.7-2,4.9-4.9,5.6-6.9l-0.1-0.2l18.7-8.7l0.1,0.2c2,0.7,6.9-0.6,8.9,0.2l33.9-15.8c0.7-2,4.9-4.9,5.6-6.9l-0.1-0.2l9-4.2
			c0.4-1.1,0.6-1.7,1-2.7l-1.7-3.7c-1.1-0.4-1.7-0.6-2.7-1L460.2,323.2z"/>
		<path class="st24" d="M436.1,285.1c-0.7,2-4.8,4.8-5.5,6.8l0.1,0.3l-26.1,12.2l-0.1-0.3c-2-0.7-6.8,0.6-8.7-0.1l-27,12.6
			c-0.7,2-4.8,4.8-5.5,6.8l0.1,0.3l-19.6,9.1l-0.1-0.3c-2-0.7-6.8,0.6-8.7-0.1l-20.5,9.6c-0.7,2-4.8,4.8-5.5,6.8l0.1,0.3l-23.4,10.9
			l-0.1-0.3c-2-0.7-6.8,0.6-8.7-0.1l-19.8,9.2c-0.7,2-4.8,4.8-5.5,6.8l0.1,0.3l-12.3,5.8l-0.1-0.3c-2-0.7-6.8,0.6-8.7-0.1l-20.2,9.4
			c-0.7,2-4.8,4.8-5.5,6.8l0.1,0.3l-17.1,8l-0.1-0.3c-2-0.7-6.8,0.6-8.7-0.1l-16.6,7.7c-0.7,2-4.8,4.8-5.5,6.8l3.7,8
			c2,0.7,6.8-0.6,8.7,0.1l16.6-7.7c0.7-2,4.8-4.8,5.5-6.8l-0.1-0.3l17.1-8l0.1,0.3c2,0.7,6.8-0.6,8.7,0.1l20.2-9.4
			c0.7-2,4.8-4.8,5.5-6.8l-0.1-0.3l12.3-5.8l0.1,0.3c2,0.7,6.8-0.6,8.7,0.1l19.8-9.2c0.7-2,4.8-4.8,5.5-6.8l-0.1-0.3l23.4-10.9
			l0.1,0.3c2,0.7,6.8-0.6,8.7,0.1l20.5-9.6c0.7-2,4.8-4.8,5.5-6.8l-0.1-0.3l19.6-9.1l0.1,0.3c2,0.7,6.8-0.6,8.7,0.1l27-12.6
			c0.7-2,4.8-4.8,5.5-6.8l-0.1-0.3l26.1-12.2l0.1,0.3c2,0.7,6.8-0.6,8.7,0.1l31-14.5c0.7-2,4.8-4.8,5.5-6.8l-3.7-8
			c-2-0.7-6.8,0.6-8.7-0.1L436.1,285.1z"/>
		<path class="st24" d="M444.3,375.3l-0.1-0.2c-2-0.7-6.9,0.6-8.9-0.2l-8.7,4.1c-0.7,2-4.9,4.9-5.6,6.9l0.1,0.2l-30.5,14.2l-0.1-0.2
			c-2-0.7-6.9,0.6-8.9-0.2L344,417.6c-0.7,2-4.9,4.9-5.6,6.9l0.1,0.2l-18,8.4l-0.1-0.2c-2-0.7-6.9,0.6-8.9-0.2l-26.5,12.3
			c-0.7,2-4.9,4.9-5.6,6.9l0.1,0.2l-31,14.4c-0.4,1.1-0.6,1.7-1,2.7l1.7,3.7c1.1,0.4,1.7,0.6,2.7,1l31-14.4l0.1,0.2
			c2,0.7,6.9-0.6,8.9,0.2l26.5-12.3c0.7-2,4.9-4.9,5.6-6.9l-0.1-0.2l18-8.4l0.1,0.2c2,0.7,6.9-0.6,8.9,0.2l37.7-17.6
			c0.7-2,4.9-4.9,5.6-6.9l-0.1-0.2l30.5-14.2l0.1,0.2c2,0.7,6.9-0.6,8.9,0.2l8.7-4.1c0.7-2,4.9-4.9,5.6-6.9l-0.1-0.2l8.4-3.9
			c0.4-1.1,0.6-1.7,1-2.7l-1.7-3.7c-1.1-0.4-1.7-0.6-2.7-1L444.3,375.3z"/>
	</g>
</g>
</svg>
