<?xml version="1.0" encoding="utf-8"?>
<!-- Generator: Adobe Illustrator 27.0.1, SVG Export Plug-In . SVG Version: 6.00 Build 0)  -->
<svg version="1.1" id="Camada_1" xmlns="http://www.w3.org/2000/svg" xmlns:xlink="http://www.w3.org/1999/xlink" x="0px" y="0px"
	 viewBox="0 0 1029.4 1051.6" style="enable-background:new 0 0 1029.4 1051.6;" xml:space="preserve">
<style type="text/css">
	.st0{fill:none;stroke:#000000;stroke-miterlimit:10;}
	.st1{fill:#0172AF;}
	.st2{fill:#575756;}
	.st3{fill:url(#SVGID_1_);}
	.st4{fill:url(#SVGID_00000054978220191221722020000012291970406389749141_);}
	.st5{fill:url(#SVGID_00000041267333387217693730000010809809444111347387_);}
	.st6{fill:url(#SVGID_00000013190822255131455270000011639117206480536194_);}
	.st7{fill:url(#SVGID_00000122720437457517840460000008654505777543664061_);}
	.st8{fill:url(#SVGID_00000137826511149371885620000002741232970789870749_);}
	.st9{fill:url(#SVGID_00000010998124284383857370000013256149810863668409_);}
	.st10{fill:url(#SVGID_00000120542534404438779940000000134703213397116314_);}
	.st11{fill:url(#SVGID_00000004504237144633585260000000053010363725571509_);}
	.st12{fill:url(#SVGID_00000054257705129578136280000007671169189418596029_);}
	.st13{fill:url(#SVGID_00000060712785050666868920000004553101405279712400_);}
	.st14{fill:url(#SVGID_00000000915609867111416720000002798367694459592369_);}
	.st15{fill:url(#SVGID_00000152961184596437602810000006548149320078313403_);}
	.st16{fill:url(#SVGID_00000022521723368766329440000010596326188183875469_);}
	.st17{fill:url(#SVGID_00000146475600699112457310000013933892265341032588_);}
	.st18{fill:url(#SVGID_00000098203170609238901090000014399322639166800028_);}
	.st19{fill:url(#SVGID_00000084505569521794897060000005094668862270972033_);}
	.st20{fill:url(#SVGID_00000143577609534451095710000017045004273424521352_);}
	.st21{fill:url(#SVGID_00000001654049952989073090000001133161354782293657_);}
	.st22{fill:url(#SVGID_00000057837746704531399400000001475717182066296454_);}
	.st23{fill:#74FEBD;}
	.st24{fill:#F5F5F5;}
	.st25{fill:#FFFFFF;}
	.st26{fill:#121212;}
	.st27{fill:#333333;}
	.st28{fill:url(#SVGID_00000163070530080315281310000002565036995476588700_);}
	.st29{fill:url(#SVGID_00000149373305075488747970000018431108975888435370_);}
	.st30{fill:url(#SVGID_00000008861770363961597790000011688344918551108797_);}
	.st31{fill:url(#SVGID_00000166635697886133687010000005035690291645745299_);}
	.st32{fill:url(#SVGID_00000085224903221249781530000002502771524532784539_);}
	.st33{fill:url(#SVGID_00000062172141443396176810000014397256650393581720_);}
	.st34{fill:url(#SVGID_00000067223470036050114810000016085606291824319379_);}
	.st35{fill:url(#SVGID_00000153696508044200971830000015435246153027809980_);}
	.st36{fill:url(#SVGID_00000151507935410260703880000008533949225712902789_);}
	.st37{fill:url(#SVGID_00000028289351155524076590000002134828733549897399_);}
</style>
<g>
	<path class="st24" d="M733.4,786.8l-0.1-0.3c-3.8-1.4-12.8,1.1-16.5-0.3L677,804.8c-1.4,3.8-9,9.1-10.4,12.9l0.1,0.3l-36.1,16.9
		l-0.1-0.3c-3.8-1.4-12.8,1.1-16.5-0.3l-24.1,11.3c-1.4,3.8-9,9.1-10.4,12.9l0.1,0.3l-14.4,6.7c-0.7,2-1.1,3.1-1.9,5.1l3.2,6.8
		c2,0.7,3.1,1.1,5.1,1.9l14.4-6.7l0.1,0.3c3.8,1.4,12.8-1.1,16.5,0.3l24.1-11.3c1.4-3.8,9-9.1,10.4-12.9l-0.1-0.3l36.1-16.9l0.1,0.3
		c3.8,1.4,12.8-1.1,16.5,0.3l39.8-18.6c1.4-3.8,9-9.1,10.4-12.9l-0.1-0.3l14.4-6.7c0.7-2,1.1-3.1,1.9-5.1l-3.2-6.8
		c-2-0.7-3.1-1.1-5.1-1.9L733.4,786.8z"/>
	<path class="st24" d="M334.8,240.7l0.1,0.3c3.8,1.4,12.8-1.1,16.6,0.3l57.9-27c1.4-3.8,9-9.1,10.4-12.9l-0.1-0.3l35.8-16.7
		c0.8-2.2,1.2-3.4,2-5.6l-2.9-6.2c-2.2-0.8-3.4-1.2-5.6-2l-35.8,16.7l-0.1-0.3c-3.8-1.4-12.8,1.1-16.6-0.3l-57.9,27
		c-1.4,3.8-9,9.1-10.4,12.9l0.1,0.3l-39.8,18.6c-0.8,2.2-1.2,3.4-2,5.6l2.9,6.2c2.2,0.8,3.4,1.2,5.6,2L334.8,240.7z"/>
	<path class="st24" d="M247.9,456.1c1.4-3.8,9-9.1,10.4-12.9l-0.1-0.3l57.7-26.9l0.1,0.3c3.8,1.4,12.8-1.1,16.6,0.3l218.1-101.8
		c1.4-3.8,9-9.1,10.4-12.9l-0.1-0.3l51.3-23.9l0.1,0.3c3.8,1.4,12.8-1.1,16.6,0.3l62.4-29.1c1.4-3.8,9-9.1,10.4-12.9l-6.7-14.4
		c-3.8-1.4-12.8,1.1-16.6-0.3l-62.4,29.1c-1.4,3.8-9,9.1-10.4,12.9l0.1,0.3l-51.3,23.9l-0.1-0.3c-3.8-1.4-12.8,1.1-16.6-0.3
		L319.7,389c-1.4,3.8-9,9.1-10.4,12.9l0.1,0.3l-57.7,26.9l-0.1-0.3c-3.8-1.4-12.8,1.1-16.6-0.3l-54.7,25.5c-1.4,3.8-9,9.1-10.4,12.9
		l6.7,14.4c3.8,1.4,12.8-1.1,16.6,0.3L247.9,456.1z"/>
	<path class="st24" d="M238.3,543.7c1.4-3.8,9-9.1,10.4-12.9l-0.1-0.3L284,514l0.1,0.3c3.8,1.4,12.8-1.1,16.6,0.3l44.1-20.6
		c1.4-3.8,9-9.1,10.4-12.9l-0.1-0.3l62.8-29.3l0.1,0.3c3.8,1.4,12.8-1.1,16.6,0.3l76.5-35.7c1.4-3.8,9-9.1,10.4-12.9l-0.1-0.3
		l62.4-29.1l0.1,0.3c3.8,1.4,12.8-1.1,16.6,0.3l44.8-20.9c1.4-3.8,9-9.1,10.4-12.9l-0.1-0.3l32.7-15.3l0.1,0.3
		c3.8,1.4,12.8-1.1,16.6,0.3l52.5-24.5c1.4-3.8,9-9.1,10.4-12.9l-6.7-14.4c-3.8-1.4-12.8,1.1-16.6-0.3l-52.5,24.5
		c-1.4,3.8-9,9.1-10.4,12.9l0.1,0.3l-32.7,15.3l-0.1-0.3c-3.8-1.4-12.8,1.1-16.6-0.3l-44.8,20.9c-1.4,3.8-9,9.1-10.4,12.9l0.1,0.3
		l-62.4,29.1l-0.1-0.3c-3.8-1.4-12.8,1.1-16.6-0.3l-76.5,35.7c-1.4,3.8-9,9.1-10.4,12.9l0.1,0.3L348.7,467l-0.1-0.3
		c-3.8-1.4-12.8,1.1-16.6-0.3L287.9,487c-1.4,3.8-9,9.1-10.4,12.9l0.1,0.3l-35.4,16.5l-0.1-0.3c-3.8-1.4-12.8,1.1-16.6-0.3
		l-47.6,22.2c-1.4,3.8-9,9.1-10.4,12.9l6.7,14.4c3.8,1.4,12.8-1.1,16.6,0.3L238.3,543.7z"/>
	<path class="st24" d="M316.5,340.8c1.4-3.8,9-9.1,10.4-12.9l-0.1-0.3l157.5-73.5l0.1,0.3c3.8,1.4,12.8-1.1,16.6,0.3l96.1-44.8
		c1.4-3.8,9-9.1,10.4-12.9l-6.7-14.4c-3.8-1.4-12.8,1.1-16.6-0.3l-96.1,44.8c-1.4,3.8-9,9.1-10.4,12.9l0.1,0.3l-157.5,73.5l-0.1-0.3
		c-3.8-1.4-12.8,1.1-16.6-0.3l-92.8,43.3c-1.4,3.8-9,9.1-10.4,12.9l6.7,14.4c3.8,1.4,12.8-1.1,16.6,0.3L316.5,340.8z"/>
	<path class="st24" d="M787.1,420.5c-1.3,3.7-9,8.9-10.3,12.6l0.2,0.5L747,447.7l-0.2-0.5c-3.7-1.3-12.6,1.1-16.2-0.2l-29.7,13.9
		c-1.3,3.7-9,8.9-10.3,12.6l0.2,0.5L659,488.7l-0.2-0.5c-3.7-1.3-12.6,1.1-16.2-0.2L610,503.2c-1.3,3.7-9,8.9-10.3,12.6l0.2,0.5
		l-43.5,20.3l-0.2-0.5c-3.7-1.3-12.6,1.1-16.2-0.2l-32.8,15.3c-1.3,3.7-9,8.9-10.3,12.6l0.2,0.5L455,583.9l-0.2-0.5
		c-3.7-1.3-12.6,1.1-16.2-0.2l-34.8,16.2c-1.3,3.7-9,8.9-10.3,12.6l0.2,0.5l-27,12.6l-0.2-0.5c-3.7-1.3-12.6,1.1-16.2-0.2
		l-32.8,15.3c-1.3,3.7-9,8.9-10.3,12.6l0.2,0.5l-30,14l-0.2-0.5c-3.7-1.3-12.6,1.1-16.2-0.2l-35,16.3c-1.3,3.7-9,8.9-10.3,12.6
		l6.9,14.8c3.7,1.3,12.6-1.1,16.2,0.2l35-16.3c1.3-3.7,9-8.9,10.3-12.6l-0.2-0.5l30-14l0.2,0.5c3.7,1.3,12.6-1.1,16.2,0.2L363,652
		c1.3-3.7,9-8.9,10.3-12.6l-0.2-0.5l27-12.6l0.2,0.5c3.7,1.3,12.6-1.1,16.2,0.2l34.8-16.2c1.3-3.7,9-8.9,10.3-12.6l-0.2-0.5
		l42.2-19.7l0.2,0.5c3.7,1.3,12.6-1.1,16.2,0.2l32.8-15.3c1.3-3.7,9-8.9,10.3-12.6l-0.2-0.5l43.5-20.3l0.2,0.5
		c3.7,1.3,12.6-1.1,16.2,0.2l32.5-15.2c1.3-3.7,9-8.9,10.3-12.6l-0.2-0.5l31.7-14.8l0.2,0.5c3.7,1.3,12.6-1.1,16.2,0.2l29.7-13.9
		c1.3-3.7,9-8.9,10.3-12.6l-0.2-0.5l30.1-14.1l0.2,0.5c3.7,1.3,12.6-1.1,16.2,0.2l37.2-17.3c1.3-3.7,9-8.9,10.3-12.6l-6.9-14.8
		c-3.7-1.3-12.6,1.1-16.2-0.2L787.1,420.5z"/>
	<path class="st24" d="M792.2,334.9L747,356c-1.4,3.8-9,9.1-10.4,12.9l0.1,0.3L710,381.7l-0.1-0.3c-3.8-1.4-12.8,1.1-16.6-0.3
		l-35,16.3c-1.4,3.8-9,9.1-10.4,12.9l0.1,0.3l-31.4,14.7l-0.1-0.3c-3.8-1.4-12.8,1.1-16.6-0.3l-42.8,20c-1.4,3.8-9,9.1-10.4,12.9
		l0.1,0.3l-101.5,47.4l-0.1-0.3c-3.8-1.4-12.8,1.1-16.6-0.3l-41.1,19.2c-1.4,3.8-9,9.1-10.4,12.9l0.1,0.3l-34.1,15.9l-0.1-0.3
		c-3.8-1.4-12.8,1.1-16.6-0.3l-36,16.8c-1.4,3.8-9,9.1-10.4,12.9l0.1,0.3l-29.7,13.9l-0.1-0.3c-3.8-1.4-12.8,1.1-16.6-0.3L194.1,614
		c-1.4,3.8-9,9.1-10.4,12.9l6.7,14.4c3.8,1.4,12.8-1.1,16.6,0.3l39.6-18.5c1.4-3.8,9-9.1,10.4-12.9l-0.1-0.3l29.7-13.9l0.1,0.3
		c3.8,1.4,12.8-1.1,16.6,0.3l36-16.8c1.4-3.8,9-9.1,10.4-12.9l-0.1-0.3l34.1-15.9l0.1,0.3c3.8,1.4,12.8-1.1,16.6,0.3l41.1-19.2
		c1.4-3.8,9-9.1,10.4-12.9l-0.1-0.3l101.5-47.4l0.1,0.3c3.8,1.4,12.8-1.1,16.6,0.3l42.8-20c1.4-3.8,9-9.1,10.4-12.9L623,439
		l31.4-14.7l0.1,0.3c3.8,1.4,12.8-1.1,16.6,0.3l35-16.3c1.4-3.8,9-9.1,10.4-12.9l-0.1-0.3l26.7-12.4l0.1,0.3
		c3.8,1.4,12.8-1.1,16.6,0.3l45.2-21.1c1.4-3.8,9-9.1,10.4-12.9l-6.7-14.4C805,333.9,795.9,336.3,792.2,334.9z"/>
	<path class="st24" d="M827.6,576.5l-0.1-0.3c-3.8-1.4-12.8,1.1-16.5-0.3l-63,29.4c-1.4,3.8-9,9.1-10.4,12.9l0.1,0.3l-34.8,16.2
		l-0.1-0.3c-3.8-1.4-12.8,1.1-16.5-0.3l-53.6,25c-1.4,3.8-9,9.1-10.4,12.9l0.1,0.3l-43.5,20.3l-0.1-0.3c-3.8-1.4-12.8,1.1-16.5-0.3
		l-44.8,20.9c-1.4,3.8-9,9.1-10.4,12.9l0.1,0.3l-23.6,11l-0.1-0.3c-3.8-1.4-12.8,1.1-16.5-0.3l-39.8,18.6c-1.4,3.8-9,9.1-10.4,12.9
		l0.1,0.3l-36.1,16.9l-0.1-0.3c-3.8-1.4-12.8,1.1-16.5-0.3l-24.1,11.3c-1.4,3.8-9,9.1-10.4,12.9L336,823c3.8,1.4,12.8-1.1,16.5,0.3
		l24.1-11.3c1.4-3.8,9-9.1,10.4-12.9l-0.1-0.3L423,782l0.1,0.3c3.8,1.4,12.8-1.1,16.5,0.3l39.8-18.6c1.4-3.8,9-9.1,10.4-12.9
		l-0.1-0.3l23.6-11l0.1,0.3c3.8,1.4,12.8-1.1,16.5,0.3l44.8-20.9c1.4-3.8,9-9.1,10.4-12.9l-0.1-0.3l43.5-20.3l0.1,0.3
		c3.8,1.4,12.8-1.1,16.5,0.3l53.6-25c1.4-3.8,9-9.1,10.4-12.9l-0.1-0.3l34.8-16.2l0.1,0.3c3.8,1.4,12.8-1.1,16.5,0.3l63-29.4
		c1.4-3.8,9-9.1,10.4-12.9l-0.1-0.3l16.7-7.8c0.7-2,1.1-3.1,1.9-5.1l-3.2-6.8c-2-0.7-3.1-1.1-5.1-1.9L827.6,576.5z"/>
	<path class="st24" d="M782.8,505.7c-1.3,3.7-9,8.9-10.3,12.6l0.2,0.5l-48.6,22.7l-0.2-0.5c-3.7-1.3-12.6,1.1-16.2-0.2l-50.3,23.5
		c-1.3,3.7-9,8.9-10.3,12.6l0.2,0.5l-36.5,17l-0.2-0.5c-3.7-1.3-12.6,1.1-16.2-0.2l-38.2,17.8c-1.3,3.7-9,8.9-10.3,12.6l0.2,0.5
		l-43.5,20.3l-0.2-0.5c-3.7-1.3-12.6,1.1-16.2-0.2l-36.8,17.2c-1.3,3.7-9,8.9-10.3,12.6l0.2,0.5l-23,10.7l-0.2-0.5
		c-3.7-1.3-12.6,1.1-16.2-0.2l-37.5,17.5c-1.3,3.7-9,8.9-10.3,12.6l0.2,0.5l-31.7,14.8l-0.2-0.5c-3.7-1.3-12.6,1.1-16.2-0.2
		l-30.8,14.4c-1.3,3.7-9,8.9-10.3,12.6l6.9,14.8c3.7,1.3,12.6-1.1,16.2,0.2l30.8-14.4c1.3-3.7,9-8.9,10.3-12.6l-0.2-0.5l31.7-14.8
		l0.2,0.5c3.7,1.3,12.6-1.1,16.2,0.2l37.5-17.5c1.3-3.7,9-8.9,10.3-12.6l-0.2-0.5l23-10.7l0.2,0.5c3.7,1.3,12.6-1.1,16.2,0.2
		l36.8-17.2c1.3-3.7,9-8.9,10.3-12.6l-0.2-0.5l43.5-20.3l0.2,0.5c3.7,1.3,12.6-1.1,16.2,0.2l38.2-17.8c1.3-3.7,9-8.9,10.3-12.6
		l-0.2-0.5l36.5-17l0.2,0.5c3.7,1.3,12.6-1.1,16.2,0.2l50.3-23.5c1.3-3.7,9-8.9,10.3-12.6l-0.2-0.5l48.6-22.7l0.2,0.5
		c3.7,1.3,12.6-1.1,16.2,0.2l57.7-26.9c1.3-3.7,9-8.9,10.3-12.6l-6.9-14.8c-3.7-1.3-12.6,1.1-16.2-0.2L782.8,505.7z"/>
	<path class="st24" d="M798.1,673.4l-0.1-0.3c-3.8-1.4-12.8,1.1-16.5-0.3l-16.2,7.5c-1.4,3.8-9,9.1-10.4,12.9l0.1,0.3L698.3,720
		l-0.1-0.3c-3.8-1.4-12.8,1.1-16.5-0.3l-70.1,32.7c-1.4,3.8-9,9.1-10.4,12.9l0.1,0.3l-33.4,15.6l-0.1-0.3
		c-3.8-1.4-12.8,1.1-16.5-0.3l-49.2,23c-1.4,3.8-9,9.1-10.4,12.9l0.1,0.3l-57.6,26.9c-0.7,2-1.1,3.1-1.9,5.1l3.2,6.8
		c2,0.7,3.1,1.1,5.1,1.9l57.6-26.9l0.1,0.3c3.8,1.4,12.8-1.1,16.5,0.3l49.2-23c1.4-3.8,9-9.1,10.4-12.9l-0.1-0.3l33.4-15.6l0.1,0.3
		c3.8,1.4,12.8-1.1,16.5,0.3l70.1-32.7c1.4-3.8,9-9.1,10.4-12.9l-0.1-0.3l56.7-26.4l0.1,0.3c3.8,1.4,12.8-1.1,16.5,0.3l16.2-7.5
		c1.4-3.8,9-9.1,10.4-12.9l-0.1-0.3l15.6-7.3c0.7-2,1.1-3.1,1.9-5.1l-3.2-6.8c-2-0.7-3.1-1.1-5.1-1.9L798.1,673.4z"/>
</g>
</svg>
